<?xml version="1.0" encoding="UTF-8"?>
<svg id="Layer_1" xmlns="http://www.w3.org/2000/svg" version="1.1" viewBox="0 0 24 24">
  <!-- Generator: Adobe Illustrator 29.1.0, SVG Export Plug-In . SVG Version: 2.1.0 Build 142)  -->
  <defs>
    <style>
      .st0 {
        fill: #e60111;
        fill-rule: evenodd;
      }
    </style>
  </defs>
  <path class="inherit" d="M19.8,16.3h0c0-.6-.2-1.1-.6-1.4l-1.8-1.5c-.7-.6-1.8-.6-2.5,0l-1,1c0,0-.2,0-.2,0-1.9-1-3.4-2.5-4.4-4.4,0,0,0-.2,0-.2l1-1c.7-.7.7-1.8,0-2.5l-1.5-1.8c-.3-.4-.8-.6-1.3-.6h-.1c-.5,0-.9.1-1.3.5l-1.7,1.6c-.5.4-.7,1.1-.5,1.7.6,3,2.1,5.7,4.2,7.8,2.2,2.1,4.9,3.6,7.8,4.2.1,0,.3,0,.4,0,.5,0,.9-.2,1.3-.6l1.6-1.7c.3-.3.5-.8.5-1.3h0ZM6.9,5.2c.1-.1.3-.2.5-.2h.2c.2,0,.4.1.6.3l1.5,1.8c.3.3.3.8,0,1.2l-.2.2c-.9-1-1.8-2.1-2.6-3.1h0ZM17,18.6h0c-.2.2-.5.3-.7.2-5.7-1.1-10.1-5.6-11.3-11.3,0-.3,0-.6.2-.7l.9-.9c.8,1.1,1.7,2.1,2.6,3.1l-.2.2c-.4.4-.5,1-.2,1.4,1.1,2,2.7,3.6,4.7,4.7.5.3,1.1.2,1.4-.2l.2-.2c1,.9,2.1,1.8,3.1,2.6l-.9.9ZM18.8,16.4c0,.2,0,.4-.2.5h0c-1.1-.8-2.1-1.7-3.1-2.6l.2-.2h0c.3-.3.8-.3,1.2,0l1.8,1.5c.2.1.3.3.3.6h0Z"/>
</svg>