<?xml version="1.0" encoding="UTF-8"?>
<svg id="Layer_1" xmlns="http://www.w3.org/2000/svg" version="1.1" viewBox="0 0 35 35">
  <!-- Generator: Adobe Illustrator 29.1.0, SVG Export Plug-In . SVG Version: 2.1.0 Build 142)  -->
  <defs>
    <style>
      .st0 {
        fill: #fff;
      }
    </style>
  </defs>
  <path id="Exclusion_1" class="inherit" d="M17.4,24.8c-2.5,0-4.6,0-6.2-.2-1,0-1.9-.2-2.8-.7-.7-.5-1.2-1.4-1.2-2.3-.1-1.4-.2-2.8-.2-4.1,0-1.4,0-2.8.2-4.1,0-.9.5-1.8,1.2-2.3.9-.4,1.8-.7,2.8-.7,1.9-.2,4.3-.2,6.2-.2s4.3,0,6.2.2c1,0,1.9.2,2.7.7.7.6,1.2,1.4,1.2,2.3.2,1.4.3,2.8.2,4.1,0,1.4,0,2.8-.2,4.1,0,.9-.5,1.8-1.2,2.3-.8.4-1.8.7-2.7.7-1.7.2-3.7.2-6.2.2ZM15.3,14.3v6.3l5.4-3.2-5.4-3.1Z"/>
</svg>