<?xml version="1.0" encoding="UTF-8"?>
<svg id="Layer_1" xmlns="http://www.w3.org/2000/svg" version="1.1" viewBox="0 0 24 24">
  <!-- Generator: Adobe Illustrator 29.1.0, SVG Export Plug-In . SVG Version: 2.1.0 Build 142)  -->
  <defs>
    <style>
      .st0 {
        fill: #e60111;
      }
    </style>
  </defs>
  <path class="inherit" d="M12.9,4c-.3,0-.5,0-.8,0-3.2-.2-6,2.3-6.2,5.5,0,.3,0,.5,0,.8,0,4.5,5.4,9.7,5.6,9.9.3.3.8.3,1.1,0,.2-.2,5.6-5.4,5.6-9.9.2-3.2-2.2-6-5.4-6.3ZM12.2,19h0c-1.4-1.5-4.8-5.5-4.8-8.7,0-4.6,3.7-5,4.8-5s4.8.4,4.8,5-3.4,7.2-4.8,8.7Z"/>
  <path class="inherit" d="M12.2,6.7h0c-1.9,0-3.4,1.5-3.4,3.4s1.5,3.4,3.4,3.4,3.4-1.5,3.4-3.4c0-1.9-1.5-3.4-3.4-3.4ZM14.3,10.2c0,1.2-1,2.1-2.1,2.1h0c-1.2,0-2.1-1-2.1-2.1s1-2.1,2.1-2.1,2.1,1,2.1,2.1h0Z"/>
</svg>