<?xml version="1.0" encoding="utf-8"?>
<!-- Generator: Adobe Illustrator 28.1.0, SVG Export Plug-In . SVG Version: 6.00 Build 0)  -->
<svg version="1.1" id="Layer_1" xmlns="http://www.w3.org/2000/svg" xmlns:xlink="http://www.w3.org/1999/xlink" x="0px" y="0px"
	 viewBox="0 0 24 24" style="enable-background:new 0 0 24 24;" xml:space="preserve">
<path d="M18.7,17.6C18.7,17.6,18.7,17.6,18.7,17.6L18.7,17.6L16.1,15c0.8-1.1,1.3-2.4,1.3-3.8c0-3.4-2.8-6.2-6.2-6.2
	c-3.4,0-6.2,2.8-6.2,6.2c0,3.4,2.8,6.2,6.2,6.2c1.4,0,2.7-0.5,3.8-1.3l2.6,2.6c0.3,0.3,0.8,0.3,1.1,0C19,18.4,19,17.9,18.7,17.6z
	 M11.2,15.8c-2.6,0-4.6-2.1-4.6-4.6c0-2.6,2.1-4.6,4.6-4.6c2.6,0,4.6,2.1,4.6,4.6C15.8,13.8,13.8,15.8,11.2,15.8z"/>
</svg>
