<?xml version="1.0" encoding="utf-8"?>
<!-- Generator: Adobe Illustrator 28.0.0, SVG Export Plug-In . SVG Version: 6.00 Build 0)  -->
<svg version="1.1" id="Layer_1" xmlns="http://www.w3.org/2000/svg" xmlns:xlink="http://www.w3.org/1999/xlink" x="0px" y="0px"
	 viewBox="0 0 48 48" style="enable-background:new 0 0 48 48;" xml:space="preserve">

<path fill="inherit" id="star-svgrepo-com"  d="M39.9,19l-10.6-1.6c-0.1,0-0.2-0.1-0.2-0.2l-4.9-9.6c-0.1-0.2-0.4-0.2-0.5,0l-4.8,9.6
	c0,0.1-0.1,0.1-0.2,0.2L8.1,19.1c-0.2,0-0.3,0.3-0.2,0.5l7.7,7.5c0.1,0.1,0.1,0.2,0.1,0.2L14,38c0,0.2,0.2,0.4,0.4,0.3l9.5-5
	c0.1,0,0.2,0,0.3,0l9.6,4.9c0.2,0.1,0.4-0.1,0.4-0.3l-1.8-10.6c0-0.1,0-0.2,0.1-0.2l7.6-7.6C40.3,19.3,40.2,19,39.9,19z"/>
</svg>
