<?xml version="1.0" encoding="utf-8"?>
<!-- Generator: Adobe Illustrator 28.0.0, SVG Export Plug-In . SVG Version: 6.00 Build 0)  -->
<svg version="1.1" id="Layer_1" xmlns="http://www.w3.org/2000/svg" xmlns:xlink="http://www.w3.org/1999/xlink" x="0px" y="0px"
	 viewBox="0 0 24 24" style="enable-background:new 0 0 24 24;" xml:space="preserve">
<style type="text/css">
	.st0{fill:#444444;}
</style>
<path id="star-svgrepo-com" class="st0" d="M19.1,9.8l-4.8-0.7c0,0-0.1,0-0.1-0.1l-2.2-4.3c0-0.1-0.2-0.1-0.2,0L9.7,9
	c0,0-0.1,0.1-0.1,0.1L4.9,9.8C4.8,9.8,4.7,10,4.8,10l3.4,3.4c0,0,0,0.1,0,0.1l-0.8,4.8c0,0.1,0.1,0.2,0.2,0.1l4.3-2.2
	c0,0,0.1,0,0.1,0l4.3,2.2c0.1,0,0.2,0,0.2-0.1l-0.8-4.7c0,0,0-0.1,0-0.1l3.4-3.4C19.3,9.9,19.2,9.8,19.1,9.8z"/>
</svg>
